<?xml version="1.0" encoding="UTF-8"?>
<svg width="94px" height="9px" viewBox="0 0 94 9" version="1.1" xmlns="http://www.w3.org/2000/svg" xmlns:xlink="http://www.w3.org/1999/xlink">
    <title>EC89FB77-B2B1-4354-8213-4CFFD139F971</title>
    <g id="Web" stroke="none" stroke-width="1" fill="none" fill-rule="evenodd">
        <g id="DIKSHA-Video-Translate-Landing-page-final" transform="translate(-256.000000, -636.000000)" fill="#6236FF" fill-rule="nonzero">
            <path id="Line-3" d="M261,636 C263.316379,636 265.223981,637.750179 265.472568,640.000297 L273,640 C273.276142,640 273.5,640.223858 273.5,640.5 C273.5,640.74546 273.323125,640.949608 273.089876,640.991944 L273,641 L265.472457,641.000707 C265.223414,643.250342 263.316034,645 261,645 C258.514719,645 256.5,642.985281 256.5,640.5 C256.5,638.014719 258.514719,636 261,636 Z M340.5,636 L349.5,640.5 L340.5,645 L340.5,636 Z M261,637 C259.067003,637 257.5,638.567003 257.5,640.5 C257.5,642.432997 259.067003,644 261,644 C262.932997,644 264.5,642.432997 264.5,640.5 C264.5,638.567003 262.932997,637 261,637 Z M293,640 C293.276142,640 293.5,640.223858 293.5,640.5 C293.5,640.74546 293.323125,640.949608 293.089876,640.991944 L293,641 L285,641 C284.723858,641 284.5,640.776142 284.5,640.5 C284.5,640.25454 284.676875,640.050392 284.910124,640.008056 L285,640 L293,640 Z M313,640 C313.276142,640 313.5,640.223858 313.5,640.5 C313.5,640.74546 313.323125,640.949608 313.089876,640.991944 L313,641 L305,641 C304.723858,641 304.5,640.776142 304.5,640.5 C304.5,640.25454 304.676875,640.050392 304.910124,640.008056 L305,640 L313,640 Z M333,640 C333.276142,640 333.5,640.223858 333.5,640.5 C333.5,640.74546 333.323125,640.949608 333.089876,640.991944 L333,641 L325,641 C324.723858,641 324.5,640.776142 324.5,640.5 C324.5,640.25454 324.676875,640.050392 324.910124,640.008056 L325,640 L333,640 Z"></path>
        </g>
    </g>
</svg>