<svg xmlns="http://www.w3.org/2000/svg" width="52.884" height="47.621" viewBox="0 0 52.884 47.621"><g transform="translate(-2 -5.085)"><g transform="translate(2 5.085)"><path d="M36.684,48.043l-3.29-3.3H50.3a4.27,4.27,0,0,0,4.265-4.265V9.35A4.27,4.27,0,0,0,50.3,5.085H6.585A4.27,4.27,0,0,0,2.32,9.35V40.483a4.27,4.27,0,0,0,4.265,4.265H23.536l-3.3,3.3a2.686,2.686,0,0,0-.6,2.957H2v1.706H54.884V51h-17.6A2.69,2.69,0,0,0,36.684,48.043ZM6.585,6.791H50.3A2.562,2.562,0,0,1,52.858,9.35V36.858H4.026V9.35A2.562,2.562,0,0,1,6.585,6.791Zm0,36.251a2.562,2.562,0,0,1-2.559-2.559V38.564H52.858v1.919A2.562,2.562,0,0,1,50.3,43.042Zm24.4,1.706,2.5,2.5H23.445l2.5-2.5ZM22.168,51a1.026,1.026,0,0,1-.728-1.75l.3-.3H35.183l.294.295A1.024,1.024,0,0,1,34.758,51Z" transform="translate(-2 -5.085)"/><path d="M33.253,45.566a1.189,1.189,0,1,0,1.189,1.189A1.187,1.187,0,0,0,33.253,45.566Z" transform="translate(-6.421 -11.037)"/><rect width="1.706" height="15.567" transform="translate(6.397 8.956)"/><rect width="1.706" height="25.731" transform="translate(10.662 3.874)"/><rect width="1.706" height="10.662" transform="translate(14.927 11.408)"/><rect width="1.706" height="15.567" transform="translate(19.192 8.956)"/><rect width="1.706" height="7.144" transform="translate(23.457 13.168)"/><rect width="1.706" height="21.537" transform="translate(27.721 5.971)"/><rect width="1.706" height="4.478" transform="translate(31.986 14.5)"/><rect width="1.706" height="17.166" transform="translate(36.251 8.156)"/><rect width="1.706" height="15.567" transform="translate(40.516 8.956)"/><rect width="1.706" height="9.241" transform="translate(44.781 12.119)"/></g></g></svg>