<svg xmlns="http://www.w3.org/2000/svg" width="52.844" height="56.242" viewBox="0 0 52.844 56.242"><g transform="translate(-19.46 -17.45)"><path d="M71.439,23.4a.865.865,0,0,0,.865-.865V20.8a.865.865,0,0,0-.242-.6l-2.516-2.516a.865.865,0,0,0-.6-.242H22.815a.865.865,0,0,0-.6.242L19.7,20.208a.865.865,0,0,0-.242.6V70.337a.865.865,0,0,0,.242.6l2.516,2.516a.865.865,0,0,0,.6.242h46.1a.865.865,0,0,0,.6-.242l2.516-2.516a.865.865,0,0,0,.242-.6V25.914a.865.865,0,1,0-1.677,0V49.742H27.829a.865.865,0,1,0,0,1.677H70.6V69.991l-2.023,2.023H23.16l-2.023-2.023V51.42h3.337a.865.865,0,1,0,0-1.677H21.129V21.211l2.023-2.023H68.569l2.023,2.023v1.366A.865.865,0,0,0,71.439,23.4Z" transform="translate(0)"/><path d="M43.34,73.783a.865.865,0,0,0,.865.865H62.4a.865.865,0,0,0,0-1.677H44.179A.865.865,0,0,0,43.34,73.783Z" transform="translate(-3.234 -7.518)"/><path d="M34.465,69.836a.865.865,0,0,0-.865.865v4.461a.865.865,0,0,0,.242.6l.865.865a.865.865,0,0,0,.6.242h4.2A.865.865,0,0,0,40.37,76V70.675a.865.865,0,0,0-.865-.865Zm4.2,5.326H35.675l-.346-.346v-3.3h3.363Z" transform="translate(-1.915 -7.09)"/><path d="M52.657,62.416H34.432a.865.865,0,1,0,0,1.677H52.657a.865.865,0,0,0,0-1.677Z" transform="translate(-1.882 -6.085)"/><path d="M60.263,66.362h4.2a.865.865,0,0,0,.865-.865V60.155a.865.865,0,0,0-.865-.865H59.425a.865.865,0,0,0-.865.865v4.53a.865.865,0,0,0,.242.6l.865.865A.865.865,0,0,0,60.263,66.362Zm0-5.369h3.363v3.692H60.618l-.346-.346Z" transform="translate(-5.295 -5.666)"/><path d="M44.069,27.352a.865.865,0,0,0-.865,0l-1.271.726a.865.865,0,0,0-.424.726V43.459a.865.865,0,0,0,.424.726l1.262.726a.865.865,0,0,0,.865,0L56.77,37.58a.865.865,0,0,0,.424-.726V35.418a.865.865,0,0,0-.424-.726Zm11.456,9.035L43.663,43.234l-.424-.242v-13.7l.424-.242,11.871,6.848Z" transform="translate(-2.986 -1.325)"/></g></svg>