<svg xmlns="http://www.w3.org/2000/svg" width="128.04" height="136.273" viewBox="0 0 128.04 136.273">
  <g id="Automatic_stiching" data-name="Automatic stiching" transform="translate(-19.46 -17.45)">
    <path id="Path_330" data-name="Path 330" d="M145.405,31.863a2.1,2.1,0,0,0,2.095-2.095v-4.19a2.1,2.1,0,0,0-.587-1.445l-6.1-6.1a2.1,2.1,0,0,0-1.445-.587H27.588a2.1,2.1,0,0,0-1.445.587l-6.1,6.1a2.1,2.1,0,0,0-.587,1.445V145.595a2.1,2.1,0,0,0,.587,1.445l6.1,6.1a2.1,2.1,0,0,0,1.445.587h111.7a2.1,2.1,0,0,0,1.445-.587l6.1-6.1a2.1,2.1,0,0,0,.587-1.445V37.959a2.095,2.095,0,1,0-4.064,0V95.694H39.739a2.095,2.095,0,1,0,0,4.064H143.373v45l-4.9,4.9H28.426l-4.9-4.9v-45H31.61a2.095,2.095,0,1,0,0-4.064H23.5V26.563l4.9-4.9H138.45l4.9,4.9v3.31A2.1,2.1,0,0,0,145.405,31.863Z" transform="translate(0 0)" fill="#6c63ff"/>
    <path id="Path_331" data-name="Path 331" d="M43.34,74.939a2.1,2.1,0,0,0,2.095,2.095h44.1a2.095,2.095,0,0,0,0-4.064H45.372A2.1,2.1,0,0,0,43.34,74.939Z" transform="translate(26.146 60.789)" fill="#6c63ff"/>
    <path id="Path_332" data-name="Path 332" d="M35.695,69.873A2.1,2.1,0,0,0,33.6,71.968v10.81a2.1,2.1,0,0,0,.587,1.445l2.095,2.095a2.1,2.1,0,0,0,1.445.587H47.908A2.1,2.1,0,0,0,50,84.809V71.9a2.1,2.1,0,0,0-2.095-2.095Zm10.181,12.9H38.628l-.838-.838v-8h8.149Z" transform="translate(15.482 57.329)" fill="#6c63ff"/>
    <path id="Path_333" data-name="Path 333" d="M80.122,62.453H35.961a2.095,2.095,0,1,0,0,4.064h44.16a2.095,2.095,0,0,0,0-4.064Z" transform="translate(15.216 49.205)" fill="#6c63ff"/>
    <path id="Path_334" data-name="Path 334" d="M62.687,76.426H72.868a2.1,2.1,0,0,0,2.095-2.095V61.385a2.1,2.1,0,0,0-2.095-2.095H60.655a2.1,2.1,0,0,0-2.095,2.095V72.362a2.1,2.1,0,0,0,.587,1.445L61.241,75.9A2.1,2.1,0,0,0,62.687,76.426Zm0-13.009h8.149v8.945h-7.29l-.838-.838Z" transform="translate(42.81 45.81)" fill="#6c63ff"/>
    <path id="Path_335" data-name="Path 335" d="M47.711,27.517a2.1,2.1,0,0,0-2.095,0l-3.08,1.76a2.1,2.1,0,0,0-1.027,1.76V66.545a2.1,2.1,0,0,0,1.027,1.76l3.059,1.76a2.1,2.1,0,0,0,2.095,0L78.485,52.3a2.1,2.1,0,0,0,1.027-1.76V47.062a2.1,2.1,0,0,0-1.027-1.76ZM75.468,49.408,46.726,66,45.7,65.413v-33.2l1.026-.587L75.489,48.214Z" transform="translate(24.142 10.715)" fill="#6c63ff"/>
  </g>
</svg>
