<svg xmlns="http://www.w3.org/2000/svg" width="69.452" height="59.769" viewBox="0 0 69.452 59.769"><defs><style>.a{fill:none;}.a,.b{stroke:#fff;}.b{fill:#4e6cf1;}</style></defs><g transform="translate(-4.522 -10.859)"><g transform="translate(4.999 11.347)"><path class="a" d="M11.519,48.383c-2.429.818-4.007,2.055-3.5,4.869a18.953,18.953,0,0,0,3.084,7.26c1.7,2.359,3.578,2.087,6.065,1.454,2.674-.68,5.317-1.462,7.942-2.305Q22.6,52.652,20.362,45.552C17.4,46.459,14.452,47.395,11.519,48.383Zm-1.11,3.8,3.031-1.179c.905-.352,1.294,1.1.4,1.452L10.809,53.64C9.9,53.992,9.515,52.535,10.409,52.187Zm4.606,2.588a24.5,24.5,0,0,1-3.562,1.376.754.754,0,0,1-.4-1.452,21.988,21.988,0,0,0,3.2-1.224C15.127,53.06,15.89,54.359,15.015,54.776Z" transform="translate(-5.699 -19.528)"/><path class="a" d="M49.961,15.531A27.96,27.96,0,0,0,46.9,18.98c-6.084,7.1-12.536,14.18-20.835,18.71q2.29,7.281,4.868,14.463a53.72,53.72,0,0,1,15.047-.894,112.306,112.306,0,0,1,13.072,2.461,38.076,38.076,0,0,0,5.431,1.268,113.367,113.367,0,0,0-6.233-21.456C55.895,27.6,53.551,20.906,49.961,15.531Z" transform="translate(-10.037 -12.347)"/><path class="a" d="M20.4,69.172c-.364.092-.769.224-1.2.362.176.367.348.735.522,1.1.147-.2.3-.4.441-.612a.753.753,0,0,1,1.3.76q-.42.615-.871,1.207a1.074,1.074,0,0,1-.155.156c.187.4.383.8.572,1.2l.628-1.08a.754.754,0,0,1,1.3.76l-1.007,1.735a.8.8,0,0,1-.154.188c.069.141.134.285.2.425.134.269.269.556.4.85l.579-1.265a.759.759,0,0,1,1.03-.27.775.775,0,0,1,.27,1.03l-1.035,2.263s-.008.007-.01.011c.18.367.367.732.566,1.084A8.288,8.288,0,0,0,24.3,77.97c.315-.912,1.769-.518,1.452.4a9.412,9.412,0,0,1-.479,1.153,7.58,7.58,0,0,0-.467.912.852.852,0,0,1-.043.1c.131.162.262.322.4.466.069.071.131.125.2.186a6.445,6.445,0,0,0,.6-1.254c.313-.914,1.767-.519,1.452.4a8.4,8.4,0,0,1-.69,1.512,3.661,3.661,0,0,0,1.41-.443,7.335,7.335,0,0,0,1.96-1.367c1.73-1.91,1.7-3.173.393-5.228-.217-.34-.641-.8-.91-1.147a32.652,32.652,0,0,1-3.51-6.075C24.19,68.152,22.306,68.689,20.4,69.172Z" transform="translate(-8.397 -24.796)"/><path class="a" d="M68.575,29.514a107.163,107.163,0,0,0-5.439-11.842c-.449-.819-1.179-2.765-2.032-3.253a2.1,2.1,0,0,0-1.967-.033c3.6,5.368,5.9,12,8.282,17.94A113.115,113.115,0,0,1,73.9,54.553a1.791,1.791,0,0,0,1.395-1.786c.173-2.626-1.1-5.995-1.773-8.517A130.15,130.15,0,0,0,68.575,29.514Z" transform="translate(-17.947 -12.019)"/><path class="a" d="M76.223,33.969c-.6.063-1.2.16-1.8.259q1.456,3.69,2.686,7.46a7.622,7.622,0,0,0,2.306-1.782c.949-1.354.189-3.018-.467-4.311C78.256,34.237,77.693,33.815,76.223,33.969Z" transform="translate(-21.603 -16.75)"/><path class="b" d="M61.054,27a12.291,12.291,0,0,0-3.8.383q-1.938-4.745-4.234-9.3c-.963-1.91-2.092-4.936-3.959-6.2-2.579-1.746-5.49,1.145-7.108,2.919C35.056,22.36,28.77,30.331,19.535,35.22a1.055,1.055,0,0,0-.219.157q-3.9,1.193-7.779,2.47c-1.663.552-3.93.925-5.3,2.146-2.358,2.1-.784,6.664.147,9.058.878,2.257,2.919,6.806,5.547,7.58a4.754,4.754,0,0,0,2.422-.116c1.562,3.24,2.984,6.573,4.786,9.69,1.161,2.008,2.336,4.679,5.048,3.781,2.829-.937,6.392-3.822,5.53-7.163-.435-1.688-1.977-2.947-2.935-4.315a31.588,31.588,0,0,1-2.667-4.825c.419-.132.839-.263,1.258-.4a52.948,52.948,0,0,1,16.013-.967c4.792.529,9.473,1.794,14.179,2.8,2.318.494,6.737,2.322,8.33-.486,1.627-2.868-.52-8.231-1.26-11.08-.5-1.936-1.063-3.864-1.661-5.784,1.3-.874,2.912-1.7,3.546-3.164.67-1.542,0-3.245-.648-4.669C63.314,28.707,62.521,27.2,61.054,27Zm-34.876,33.2c.268.352.693.807.91,1.147,1.309,2.054,1.338,3.317-.393,5.228a7.323,7.323,0,0,1-1.96,1.367,3.648,3.648,0,0,1-1.41.443,8.378,8.378,0,0,0,.69-1.512c.314-.919-1.14-1.314-1.452-.4a6.381,6.381,0,0,1-.6,1.254c-.065-.062-.127-.116-.2-.186-.14-.144-.272-.3-.4-.466a.851.851,0,0,0,.043-.1,7.578,7.578,0,0,1,.467-.912,9.414,9.414,0,0,0,.479-1.153c.317-.918-1.138-1.313-1.452-.4a8.289,8.289,0,0,1-.512,1.106c-.2-.352-.386-.717-.566-1.084,0,0,.008-.007.01-.011q.518-1.132,1.035-2.263a.776.776,0,0,0-.27-1.03.759.759,0,0,0-1.03.27l-.579,1.265c-.136-.294-.272-.581-.4-.85-.07-.141-.134-.284-.2-.425a.77.77,0,0,0,.154-.188l1.007-1.735a.754.754,0,0,0-1.3-.76l-.628,1.08c-.189-.4-.385-.8-.572-1.2a1.074,1.074,0,0,0,.155-.156q.451-.592.871-1.207a.753.753,0,1,0-1.3-.76c-.142.208-.294.408-.441.612-.173-.368-.346-.736-.522-1.1.428-.138.833-.269,1.2-.362,1.9-.484,3.787-1.021,5.662-1.592A32.616,32.616,0,0,0,26.178,60.206Zm-9.707-6.42c-2.488.632-4.368.905-6.065-1.454a18.953,18.953,0,0,1-3.084-7.26c-.51-2.815,1.068-4.051,3.5-4.869,2.934-.988,5.884-1.924,8.843-2.83q2.239,7.1,4.752,14.109C21.788,52.324,19.145,53.106,16.472,53.786ZM54.011,52.72a112.306,112.306,0,0,0-13.072-2.461,53.746,53.746,0,0,0-15.047.894q-2.578-7.184-4.868-14.463c8.3-4.53,14.751-11.607,20.835-18.71a27.96,27.96,0,0,1,3.065-3.449c3.59,5.375,5.934,12.07,8.285,18a113.3,113.3,0,0,1,6.233,21.456A38.113,38.113,0,0,1,54.011,52.72Zm8.33-.625a1.792,1.792,0,0,1-1.395,1.786A113.114,113.114,0,0,0,54.47,31.654c-2.383-5.943-4.683-12.573-8.282-17.94a2.1,2.1,0,0,1,1.967.033c.853.488,1.583,2.434,2.032,3.253a106.821,106.821,0,0,1,5.439,11.842,129.692,129.692,0,0,1,4.941,14.737C61.237,46.1,62.515,49.468,62.341,52.095ZM62.809,34.5A7.621,7.621,0,0,1,60.5,36.285q-1.225-3.766-2.686-7.46c.6-.1,1.2-.2,1.8-.259,1.47-.154,2.032.267,2.722,1.626C63,31.485,63.758,33.149,62.809,34.5Z" transform="translate(-4.999 -11.347)"/><path class="b" d="M78.728,24.421c.011-1.431,0-2.862.008-4.293a.754.754,0,0,0-1.506,0c-.011,1.431,0,2.862-.008,4.293A.754.754,0,0,0,78.728,24.421Z" transform="translate(-22.273 -13.273)"/><path class="b" d="M86.863,28.588l2.354-2.581c.652-.715-.41-1.783-1.065-1.065L85.8,27.523C85.146,28.238,86.208,29.306,86.863,28.588Z" transform="translate(-24.275 -14.541)"/><path class="b" d="M92.763,36.259c-1.118-.07-2.238-.063-3.358-.1-.969-.03-.969,1.477,0,1.506,1.119.034,2.24.027,3.358.1C93.732,37.827,93.728,36.32,92.763,36.259Z" transform="translate(-25.013 -17.282)"/><path class="b" d="M86.253,45.259c-.787-.568-1.54.738-.76,1.3a31.262,31.262,0,0,1,2.726,2.265c.715.652,1.783-.411,1.065-1.065A34.406,34.406,0,0,0,86.253,45.259Z" transform="translate(-24.172 -19.424)"/><path class="b" d="M14.461,54.159c.894-.348.505-1.8-.4-1.452L11.03,53.885c-.894.348-.505,1.8.4,1.452Z" transform="translate(-6.321 -21.226)"/><path class="b" d="M15.071,55.941a21.988,21.988,0,0,1-3.2,1.224.754.754,0,0,0,.4,1.452,24.645,24.645,0,0,0,3.562-1.376C16.706,56.825,15.943,55.525,15.071,55.941Z" transform="translate(-6.516 -21.993)"/></g></g></svg>