<svg xmlns="http://www.w3.org/2000/svg" width="262.617" height="225.706" viewBox="0 0 262.617 225.706">
  <g id="Background_noise_cancellation" data-name="Background noise cancellation" transform="translate(-4.572 -10.914)">
    <g id="Group_22" data-name="Group 22" transform="translate(4.999 11.347)">
      <path id="Path_255" data-name="Path 255" d="M21.654,56.371C12.373,59.5,6.343,64.225,8.294,74.98a67.783,67.783,0,0,0,4.434,14.492,68.08,68.08,0,0,0,7.353,13.253c6.487,9.017,13.675,7.976,23.18,5.557,10.217-2.6,20.319-5.586,30.35-8.81q-9.6-26.784-18.161-53.919C44.136,49.018,32.863,52.594,21.654,56.371ZM17.412,70.909,29,66.406c3.46-1.346,4.946,4.222,1.529,5.551l-11.584,4.5C15.481,77.806,14,72.238,17.412,70.909Zm17.6,9.892A93.638,93.638,0,0,1,21.4,86.058c-3.565,1.061-5.074-4.5-1.529-5.551A84.029,84.029,0,0,0,32.11,75.829C35.442,74.245,38.359,79.211,35.015,80.8Z" transform="translate(0.586 53.905)" fill="none" stroke="#fff" stroke-width="1"/>
      <path id="Path_256" data-name="Path 256" d="M117.4,15.531c-4.76,4.018-9.022,10.04-11.712,13.18C82.437,55.857,57.777,82.9,26.061,100.216q8.753,27.826,18.6,55.274c19.013-3.48,38.171-5.341,57.5-3.416,16.9,1.681,33.412,5.748,49.956,9.406,4.963,1.1,13.683,4.324,20.755,4.847-4.94-27.692-13.512-55.986-23.819-82C140.075,61.658,131.12,36.073,117.4,15.531Z" transform="translate(35.179 -3.365)" fill="none" stroke="#fff" stroke-width="1"/>
      <path id="Path_257" data-name="Path 257" d="M23.781,73.661c-1.39.352-2.94.855-4.574,1.384.672,1.4,1.332,2.809,1.995,4.213.561-.779,1.146-1.544,1.686-2.338a2.878,2.878,0,1,1,4.969,2.9q-1.605,2.351-3.329,4.614a4.107,4.107,0,0,1-.593.6c.715,1.529,1.465,3.044,2.187,4.574l2.4-4.129c1.861-3.207,6.836-.305,4.972,2.9q-1.923,3.315-3.85,6.629a3.059,3.059,0,0,1-.59.718c.265.538.512,1.087.776,1.625.512,1.029,1.026,2.126,1.547,3.248q1.108-2.416,2.213-4.835a2.9,2.9,0,0,1,3.937-1.032,2.963,2.963,0,0,1,1.032,3.937q-1.98,4.327-3.957,8.65c-.009.017-.029.026-.038.044.689,1.4,1.4,2.8,2.163,4.143a31.674,31.674,0,0,0,1.957-4.228c1.2-3.486,6.76-1.98,5.551,1.529a35.968,35.968,0,0,1-1.832,4.405,28.973,28.973,0,0,0-1.785,3.486,3.256,3.256,0,0,1-.166.366c.5.619,1,1.23,1.541,1.779.265.27.5.477.75.712a24.63,24.63,0,0,0,2.277-4.792c1.2-3.492,6.754-1.983,5.551,1.529a32.113,32.113,0,0,1-2.637,5.778,13.992,13.992,0,0,0,5.388-1.692,28.033,28.033,0,0,0,7.49-5.225c6.612-7.3,6.5-12.128,1.5-19.978-.829-1.3-2.451-3.038-3.478-4.385-5.5-7.225-9.6-15.056-13.413-23.217C38.252,69.762,31.05,71.815,23.781,73.661Z" transform="translate(22.104 95.928)" fill="none" stroke="#fff" stroke-width="1"/>
      <path id="Path_258" data-name="Path 258" d="M95.206,72.843A409.539,409.539,0,0,0,74.42,27.588c-1.715-3.132-4.507-10.566-7.766-12.433a8.025,8.025,0,0,0-7.516-.125c13.756,20.513,22.546,45.85,31.652,68.562,10.811,26.962,19.731,56.213,24.753,84.941,2.992-.832,5.068-2.832,5.33-6.824.663-10.037-4.222-22.909-6.778-32.548A497.388,497.388,0,0,0,95.206,72.843Z" transform="translate(98.276 -5.984)" fill="none" stroke="#fff" stroke-width="1"/>
      <path id="Path_259" data-name="Path 259" d="M81.309,34.055c-2.309.241-4.6.611-6.888.991q5.565,14.1,10.264,28.509c3.2-1.971,6.821-3.966,8.813-6.81,3.626-5.176.721-11.535-1.785-16.475C89.075,35.075,86.927,33.465,81.309,34.055Z" transform="translate(127.432 31.752)" fill="none" stroke="#fff" stroke-width="1"/>
      <path id="Path_260" data-name="Path 260" d="M219.221,71.184c-4.638-.619-9.752.538-14.529,1.463Q197.286,54.511,188.511,37.1c-3.681-7.3-8-18.862-15.131-23.691-9.857-6.673-20.981,4.376-27.166,11.154C119.868,53.436,95.842,83.9,60.552,102.583a4.031,4.031,0,0,0-.837.6Q44.8,107.74,29.987,112.623c-6.356,2.111-15.018,3.536-20.263,8.2-9.011,8.013-3,25.468.561,34.615,3.355,8.627,11.157,26.012,21.2,28.969,2.745.808,6,.372,9.258-.445,5.969,12.381,11.4,25.119,18.292,37.032,4.437,7.673,8.926,17.882,19.292,14.448,10.811-3.579,24.427-14.608,21.136-27.375-1.663-6.449-7.554-11.261-11.218-16.492a120.719,120.719,0,0,1-10.194-18.44c1.6-.506,3.207-1.006,4.809-1.524,20.252-3.946,40.62-5.969,61.2-3.7,18.312,2.021,36.2,6.856,54.187,10.686,8.86,1.887,25.747,8.874,31.836-1.858,6.217-10.959-1.986-31.458-4.815-42.344-1.922-7.4-4.062-14.768-6.347-22.1,4.969-3.341,11.13-6.5,13.552-12.09,2.559-5.894.009-12.4-2.477-17.844C227.857,77.691,224.827,71.931,219.221,71.184ZM85.938,198.07c1.023,1.346,2.649,3.085,3.478,4.385,5,7.851,5.112,12.677-1.5,19.978a27.987,27.987,0,0,1-7.49,5.225,13.94,13.94,0,0,1-5.388,1.692,32.019,32.019,0,0,0,2.637-5.777c1.2-3.512-4.356-5.021-5.551-1.529a24.385,24.385,0,0,1-2.277,4.792c-.247-.236-.486-.442-.75-.712-.535-.55-1.041-1.16-1.541-1.779a3.256,3.256,0,0,0,.166-.366,28.961,28.961,0,0,1,1.785-3.486,35.977,35.977,0,0,0,1.832-4.405c1.21-3.51-4.35-5.019-5.551-1.529a31.678,31.678,0,0,1-1.957,4.228c-.762-1.346-1.474-2.739-2.163-4.143.009-.017.029-.026.038-.044q1.98-4.327,3.957-8.65a2.964,2.964,0,0,0-1.032-3.937,2.9,2.9,0,0,0-3.937,1.032q-1.108,2.416-2.213,4.835c-.52-1.122-1.038-2.219-1.547-3.248-.268-.538-.512-1.085-.776-1.625a2.943,2.943,0,0,0,.59-.718q1.923-3.315,3.85-6.629c1.864-3.21-3.108-6.112-4.972-2.9l-2.4,4.129c-.724-1.527-1.471-3.041-2.187-4.574a4.107,4.107,0,0,0,.593-.6q1.723-2.264,3.329-4.614a2.878,2.878,0,1,0-4.969-2.9c-.544.794-1.125,1.559-1.686,2.338-.663-1.407-1.323-2.812-1.995-4.213,1.634-.526,3.184-1.029,4.574-1.384,7.266-1.849,14.471-3.9,21.639-6.086C76.337,183.014,80.443,190.845,85.938,198.07Zm-37.1-24.535c-9.508,2.416-16.693,3.46-23.18-5.557a68.317,68.317,0,0,1-7.353-13.253,67.783,67.783,0,0,1-4.434-14.492c-1.948-10.758,4.082-15.483,13.361-18.609,11.212-3.777,22.485-7.353,33.8-10.816q8.557,27.137,18.161,53.919C69.161,167.95,59.06,170.936,48.843,173.535Zm143.463-4.074c-16.544-3.658-33.057-7.726-49.956-9.406-19.333-1.925-38.494-.061-57.5,3.416q-9.853-27.455-18.6-55.274c31.714-17.312,56.373-44.359,79.623-71.5,2.69-3.14,6.952-9.162,11.712-13.18,13.718,20.542,22.677,46.127,31.661,68.8,10.308,26.009,18.882,54.306,23.819,82C205.992,173.786,197.269,170.558,192.305,169.462Zm31.836-2.39c-.262,3.992-2.338,5.99-5.33,6.824-5.021-28.727-13.942-57.978-24.753-84.941-9.107-22.712-17.9-48.049-31.653-68.562a8.025,8.025,0,0,1,7.516.125c3.259,1.867,6.051,9.3,7.766,12.433a408.236,408.236,0,0,1,20.787,45.254,495.636,495.636,0,0,1,18.882,56.318C219.919,144.163,224.8,157.035,224.141,167.072Zm1.788-67.23c-1.992,2.844-5.609,4.838-8.813,6.81q-4.68-14.393-10.264-28.509c2.288-.381,4.58-.75,6.888-.992,5.618-.59,7.766,1.021,10.4,6.214C226.653,88.307,229.555,94.666,225.929,99.841Z" transform="translate(-4.999 -11.347)" fill="#182038" stroke="#fff" stroke-width="1"/>
      <path id="Path_261" data-name="Path 261" d="M82.979,38.587c.044-5.469-.017-10.939.029-16.408.029-3.7-5.725-3.707-5.757,0-.044,5.469.017,10.939-.029,16.408C77.19,42.292,82.947,42.294,82.979,38.587Z" transform="translate(132.775 4.016)" fill="#182038" stroke="#fff" stroke-width="1"/>
      <path id="Path_262" data-name="Path 262" d="M90.444,39.549q4.5-4.933,9-9.866c2.492-2.733-1.567-6.815-4.071-4.071q-4.5,4.933-9,9.866C83.882,38.212,87.941,42.294,90.444,39.549Z" transform="translate(148.746 14.132)" fill="#182038" stroke="#fff" stroke-width="1"/>
      <path id="Path_263" data-name="Path 263" d="M104.287,36.535c-4.271-.268-8.554-.241-12.831-.372-3.7-.113-3.7,5.644,0,5.757,4.277.131,8.56.1,12.831.372C107.989,42.525,107.974,36.768,104.287,36.535Z" transform="translate(154.631 35.991)" fill="#182038" stroke="#fff" stroke-width="1"/>
      <path id="Path_264" data-name="Path 264" d="M89.325,45.655c-3.009-2.172-5.885,2.82-2.9,4.972a119.475,119.475,0,0,1,10.418,8.656c2.733,2.492,6.815-1.57,4.071-4.071A131.492,131.492,0,0,0,89.325,45.655Z" transform="translate(147.926 53.078)" fill="#182038" stroke="#fff" stroke-width="1"/>
      <path id="Path_265" data-name="Path 265" d="M25.572,58.411c3.416-1.329,1.931-6.9-1.529-5.551l-11.584,4.5c-3.416,1.329-1.931,6.9,1.529,5.551Q19.779,60.665,25.572,58.411Z" transform="translate(5.54 67.449)" fill="#182038" stroke="#fff" stroke-width="1"/>
      <path id="Path_266" data-name="Path 266" d="M25.6,56.169a84.031,84.031,0,0,1-12.238,4.678C9.817,61.9,11.326,67.459,14.888,66.4A94.183,94.183,0,0,0,28.5,61.141C31.845,59.547,28.929,54.581,25.6,56.169Z" transform="translate(7.099 73.568)" fill="#182038" stroke="#fff" stroke-width="1"/>
    </g>
  </g>
</svg>
