<svg xmlns="http://www.w3.org/2000/svg" width="584.979" height="583.506" viewBox="0 0 584.979 583.506"><defs><style>.a{fill:#f2f2f2;}.b{fill:#3f3d56;}.c{opacity:0.1;}.d{fill:#ffb9b9;}.e{fill:#575a89;}.f{fill:#2f2e41;}.g{fill:#4e6cf1;}.h,.m{fill:none;stroke-miterlimit:10;}.h{stroke:#4e6cf1;stroke-width:6px;}.i{fill:#d1d9ec;}.j{fill:#4c4c56;}.k{fill:#dfe6f5;}.l{fill:#fff;}.m{stroke:#f2f2f2;stroke-width:2px;}</style></defs><path class="a" d="M799.31,265.272C767.849,141.562,659.143,52.26,531.545,48.678,464.088,46.785,393.1,69.157,341.422,147.447,249.036,287.4,347.1,384.109,415.467,430.064a427.788,427.788,0,0,1,88.423,79.474c46.18,54.8,135.019,122.9,240.823,16.2C821.4,448.4,820.266,347.676,799.31,265.272Z" transform="translate(-226.564 -48.569)"/><ellipse class="b" cx="284.899" cy="35.976" rx="284.899" ry="35.976" transform="translate(0 511.555)"/><ellipse class="c" cx="252.921" cy="25.235" rx="252.921" ry="25.235" transform="translate(31.979 515.593)"/><rect class="b" width="14.848" height="225.691" transform="translate(145.178 327.378)"/><path class="b" d="M290.6,432.787v5.939L48.573,441.7v-5.939l.342-.223,42.718-27.988H271.294Z" transform="translate(-13.271 -111.348)"/><path class="d" d="M505.127,441.813s-53.453,4.454-35.635,17.818,35.635-8.909,35.635-8.909Z" transform="translate(-270.86 -156.01)"/><path class="c" d="M290.6,442.521v5.761l-242.024,2.97v-5.939l.342-.223Z" transform="translate(-13.271 -120.904)"/><path class="e" d="M598.224,339.874l1.3-4.874s-17.633,31.6-19.118,34.571-26.727,28.211-29.7,32.666a30.339,30.339,0,0,1-7.424,7.424H515.075s-5.939,19.3,2.97,20.787,37.12,7.424,43.06,7.424,43.06-34.151,43.06-34.151Z" transform="translate(-283.778 -126.827)"/><path class="b" d="M437.478,588.255l-8.909,124.724h8.909l10.394-127.694Z" transform="translate(-117.092 -159.909)"/><path class="b" d="M586.616,567.825l-8.909,124.724h8.909L597.01,564.855Z" transform="translate(-157.839 -154.328)"/><path class="b" d="M609.089,588.255,600.18,712.979h8.909l10.394-127.694Z" transform="translate(-163.979 -159.909)"/><path class="b" d="M419.091,571.911l-8.909,124.724h8.909l10.394-127.694Z" transform="translate(-112.068 -155.444)"/><path class="b" d="M593.562,354.427,568.32,535.574l-149.966-5.939,1.009-16.719,1.96-32.28,115.815,5.939,19.3-132.148Z" transform="translate(-114.301 -96.835)"/><path class="c" d="M791.118,403,765.877,584.144,615.911,578.2l1.01-16.719c31.3,1.2,137.078-5.553,137.078-5.553,0-23.7,20.817-116.469,29.221-152.936Z" transform="translate(-311.858 -145.405)"/><path class="d" d="M489.92,705.359s-4.454,34.151-13.363,40.09,37.12,13.363,37.12,13.363l2.97-44.544Z" transform="translate(-273.471 -228.015)"/><path class="d" d="M701.716,721.324s7.424,8.909,8.909,14.848,23.757,8.909,23.757,8.909l16.333-17.818s-20.787-17.818-26.727-17.818S701.716,721.324,701.716,721.324Z" transform="translate(-335.301 -229.131)"/><circle class="d" cx="35.635" cy="35.635" r="35.635" transform="translate(291.432 114.308)"/><path class="d" d="M634.3,280.843s17.818,34.151,14.848,40.09,38.605-28.211,38.605-28.211S672.9,268.965,672.9,261.541,634.3,280.843,634.3,280.843Z" transform="translate(-316.881 -106.401)"/><path class="f" d="M603.731,526.871S489.4,509.053,484.946,550.628s-20.787,95.028-22.272,99.482,49,29.7,54.938,20.787,16.333-80.18,13.363-86.119-4.455-13.363,1.485-11.878,71.271,14.848,84.634,10.394,47.514-63.847,47.514-63.847Z" transform="translate(-269.982 -177.221)"/><path class="c" d="M603.731,526.871S489.4,509.053,484.946,550.628s-20.787,95.028-22.272,99.482,49,29.7,54.938,20.787,16.333-80.18,13.363-86.119-4.455-13.363,1.485-11.878,71.271,14.848,84.634,10.394,47.514-63.847,47.514-63.847Z" transform="translate(-269.982 -177.221)"/><path class="f" d="M635.359,513.731l4.454,37.12s-71.271,26.727-44.544,69.786,56.423,66.817,56.423,66.817,47.514-26.727,47.514-34.151-57.908-49-50.484-49,114.331-5.939,92.058-65.332S635.359,513.731,635.359,513.731Z" transform="translate(-304.58 -172.99)"/><path class="f" d="M470.477,758.494S458.6,745.131,458.6,748.1s-34.151,20.787-40.09,22.272-14.848,4.454-2.97,8.909,87.6,5.939,87.6,2.97,2.97-31.181-2.97-28.211S471.962,764.433,470.477,758.494Z" transform="translate(-255.513 -239.575)"/><path class="f" d="M717.148,742.089s-16.333-4.454-17.818,0S696.361,764.361,683,770.3s-17.818,14.848,0,16.333,66.817-32.666,66.817-38.605-5.939-23.757-8.909-22.272S730.511,740.6,717.148,742.089Z" transform="translate(-326.976 -233.564)"/><rect class="b" width="68.301" height="26.727" transform="translate(118.452 527.828)"/><path class="e" d="M683.86,289.369s-5.558-14.862-15.4-5.946-29.145,31.188-29.145,31.188-11.878,4.454-16.333,11.879-4.455,56.423,4.454,72.756,8.909,44.544,11.879,51.968,0,14.848,10.394,14.848-5.939-11.879,28.211,0,72.756,26.727,75.725,16.333-4.454-16.333,0-20.787,0-5.939-2.97-16.333-5.939-11.879-7.424-25.242,0-26.727-2.97-32.666-2.97-14.848-2.97-29.7-8.909-44.544-25.242-53.453S683.86,289.369,683.86,289.369Z" transform="translate(-312.99 -111.957)"/><path class="f" d="M597.491,192.182c8.277-8.08,16.976-16.419,27.994-19.938,14.706-4.7,31.1.232,43.762,9.066,2.731,1.906,5.406,4.064,7.047,6.961,1.506,2.658,2.032,5.743,2.51,8.761,1.681,10.626,3.058,21.394,2.237,32.121s-3.985,21.509-10.591,30a61.955,61.955,0,0,1-13.2-21.746c-.752-2.139-1.427-4.393-2.947-6.077s-4.193-2.589-6.1-1.362c-2.649,1.705-2.316,6.259-5.113,7.709a4.866,4.866,0,0,1-3.057.32c-7.292-1.257-9.831-10.19-14.577-15.868-6.995-8.368-16.788-7.838-26.347-10.243C588.017,209.1,590.763,198.749,597.491,192.182Z" transform="translate(-305.219 -81.864)"/><ellipse class="g" cx="30.522" cy="6.635" rx="30.522" ry="6.635" transform="translate(201.447 298.259)"/><path class="h" d="M513.048,427.844l-.6-31.593c-.134-7.068.119-15.078,5.374-19.807,3.32-2.988,8.312-4.272,10.4-8.224,1.135-2.152,1.156-4.7,1.151-7.131l-.084-43" transform="translate(-283.584 -122.206)"/><rect class="g" width="14.155" height="27.425" rx="7.078" transform="translate(237.72 182.364)"/><path class="d" d="M570.373,457.121s-49.212-13.054-53.226-1.826,42.016,21.622,42.016,21.622h19.3Z" transform="translate(-284.806 -158.448)"/><path class="e" d="M691.443,325.363s-22.272,16.333-28.211,40.09-10.394,49-10.394,49l-68.3,8.909s-5.939,23.757,2.97,25.242,75.725,5.939,86.119,0,46.029-80.18,44.544-87.6S713.715,326.848,691.443,325.363Z" transform="translate(-302.756 -124.194)"/><path class="i" d="M363.929,462.4l24.126,1.936,34.4-2.234-.6-.057-31.868-3.071c-7.3-2.681-2.234-18.467-2.234-18.467l-24.418,1.242-1.942.1C352.759,462.1,363.929,462.4,363.929,462.4Z" transform="translate(-241.425 -155.653)"/><path class="c" d="M363.929,462.864l24.126,1.936,34.4-2.234-.6-.057-34.772,1.248-23.307-2.532c-6.612-1.74-2.827-13.222-.441-19.012l-1.942.1C352.759,462.567,363.929,462.864,363.929,462.864Z" transform="translate(-241.425 -156.12)"/><path class="j" d="M310.829,269.643l7.226,104.773v12.645c.22,3.178,1.732,8.711,4.919,8.69l5.92-5.077h106.58c1.835-.012-4.334-2.69-4.516-4.516l7.474-3.9L430.61,305.43a6.4,6.4,0,0,0-4.271-5.4L320.454,263.364c-3.6-1.248-7.271-.8-9.564,1.1C309.317,265.773,310.648,267.034,310.829,269.643Z" transform="translate(-228.314 -107.063)"/><path class="k" d="M318.134,418.944l.968,13.892a6.031,6.031,0,0,0,6.058,5.615l2.24-.015,111.094-.673a3.116,3.116,0,0,0,3.08-3.425l-.956-9.382Z" transform="translate(-230.5 -149.762)"/><ellipse class="l" cx="1.489" cy="2.979" rx="1.489" ry="2.979" transform="translate(160.629 277.704)"/><path class="i" d="M331.232,473.1s-30.381-11.467-38.572-3.127c0,0-1.34,2.532,4.17,3.127l22.266,1.787S328.253,475.784,331.232,473.1Z" transform="translate(-223.501 -162.874)"/><path class="k" d="M331.352,469.456c-5.968-2.437-23.934-8.747-35.428-1.766,0,0,12.719-1.409,19.708,2.631s16.531,2.118,16.531,2.118l.143-.254a1.927,1.927,0,0,0-.954-2.729Z" transform="translate(-224.432 -162.209)"/><path class="k" d="M307.969,271.057l8.343,119.759a6.031,6.031,0,0,0,6.058,5.615l2.24-.015a21.445,21.445,0,0,1-3.884-5.013s-8.191-120.334-8.787-123.312a6.065,6.065,0,0,0-1.653-2.946A6.745,6.745,0,0,0,307.969,271.057Z" transform="translate(-227.711 -107.741)"/><path class="c" d="M307.969,271.057l8.343,119.759a6.031,6.031,0,0,0,6.058,5.615l2.24-.015a21.445,21.445,0,0,1-3.884-5.013s-8.191-120.334-8.787-123.312a6.065,6.065,0,0,0-1.653-2.946A6.745,6.745,0,0,0,307.969,271.057Z" transform="translate(-227.711 -107.741)"/><path class="m" d="M362.182,351.8a75.61,75.61,0,0,1-13.341,6.787c-3.012,1.173-6.326,2.161-9.435,1.277s-5.66-4.37-4.419-7.354a5.48,5.48,0,0,1,4.516-3.1,9.7,9.7,0,0,1,5.508,1.3,16.109,16.109,0,0,1,6.972,7.4c.746,1.618,1.281,3.445,2.659,4.574a8.682,8.682,0,0,0,3.765,1.464c3.161.686,6.406,1.375,9.605.9s6.394-2.374,7.472-5.423" transform="translate(-235.017 -130.76)"/><path class="m" d="M406.484,335.217q-.914,14.4-2.973,28.687l6.909-.676c2.547-.249,5.46-.717,6.8-2.9,1.246-2.035.482-4.812-1.131-6.569s-3.886-2.73-6.085-3.654l-3.6-1.512" transform="translate(-253.827 -126.886)"/><path class="m" d="M451.128,353.892a24.01,24.01,0,0,0-7.456-.9,8.315,8.315,0,0,0-6.393,3.475c-2.468,3.934.294,9.3,4.174,11.85a16.866,16.866,0,0,0,10.927,2.659" transform="translate(-262.797 -131.729)"/></svg>