<svg xmlns="http://www.w3.org/2000/svg" width="717.84" height="441.532" viewBox="0 0 717.84 441.532"><defs><style>.a,.d{fill:#4e6cf1;}.a,.e{opacity:0.1;}.b,.h{opacity:0.2;}.c{fill:#3f3d56;}.f{fill:#f1c0c0;}.g{fill:#be6f72;}.i{fill:#fed253;}.j{fill:#fbbebe;}</style></defs><path class="a" d="M728.91,371.345A147.1,147.1,0,0,1,724.6,406.84q-1.451,5.869-3.37,11.494a135.732,135.732,0,0,1-5.436,13.6q-1.554,3.364-3.285,6.594a88.713,88.713,0,0,1-7.417,35.647,91.9,91.9,0,0,1-44.6,45.953,93.813,93.813,0,0,1-39.816,9.142H147.35a119.257,119.257,0,0,1-59.983-16.035l-.28-.159q-3.894-2.279-7.594-4.827A119.1,119.1,0,0,1,63.91,495.406a115.967,115.967,0,0,1-17.132-21.227A113.273,113.273,0,0,1,29.354,413.7,142.618,142.618,0,0,1,11.07,343.079c0-32.911,10.7-62.932,28.285-85.659a120.427,120.427,0,0,1,12.012-13.365A111.784,111.784,0,0,1,65.1,232.81,106.887,106.887,0,0,1,77.293,225.5c1.761-.9,3.529-1.743,5.327-2.529,1.578-.7,3.175-1.353,4.79-1.969q2.907-1.1,5.887-2.029t5.881-1.621q4.266-1.042,8.679-1.694c2.438-.36,4.876-.609,7.313-.8,1.938-.146,3.894-.225,5.863-.25H122.1c2.17,0,4.327.085,6.466.232.225-.451.469-.908.695-1.353.853-1.627,1.737-3.248,2.627-4.833a.153.153,0,0,1,0-.043c.152-.28.3-.555.463-.823.719-1.3,1.469-2.584,2.237-3.858.353-.609.7-1.182,1.06-1.755a4.666,4.666,0,0,1,.25-.414q.549-.914,1.115-1.828,2.822-4.51,5.869-8.861l.518-.744c.317-.451.609-.89.963-1.341.841-1.176,1.706-2.359,2.578-3.517.609-.829,1.219-1.652,1.877-2.438q2.377-3.047,4.876-6.095t5.193-6.015c.244-.274.488-.542.744-.811l2.6-2.84h0c.128-.134.238-.256.36-.378h0c.311-.335.609-.67.945-.993,1.4-1.481,2.828-2.931,4.266-4.376a232.323,232.323,0,0,1,23.342-20.337c.323-.256.652-.5.975-.744,1.548-1.164,3.12-2.316,4.693-3.45a247.014,247.014,0,0,1,27.066-16.882c.646-.372,1.3-.719,1.969-1.06a258.412,258.412,0,0,1,25.9-11.921c4.821-1.908,9.751-3.7,14.712-5.339,3.3-1.085,6.619-2.115,9.977-3.084q7.874-2.267,15.858-4.065a282.39,282.39,0,0,1,47.684-6.5q7.313-.372,14.791-.384a283.4,283.4,0,0,1,71.306,9.02,2.572,2.572,0,0,0,2.212,1.152h2.048c.89.244,1.773.488,2.663.744q7.454,2.145,14.694,4.687l1.219.439a262.332,262.332,0,0,1,34.684,15.236,250.288,250.288,0,0,1,29.041,17.942q2.139,1.536,4.217,3.1,2.523-1.615,5.132-3.1a100.94,100.94,0,0,1,21.258-9.063,96.965,96.965,0,0,1,47.684-1.865c20.264,4.3,38.609,14.962,53.425,30.131a124.667,124.667,0,0,1,16.023,20.344c.335.524.67,1.054.993,1.591a134.08,134.08,0,0,1,10.2,20.338c.1.262.207.506.3.762a140.832,140.832,0,0,1,6.277,20.325c.073.353.158.7.232,1.054a146.34,146.34,0,0,1,3,20.337,3.938,3.938,0,0,0,.049.75q.384,5.308.39,10.726c0,3.23-.11,6.436-.311,9.617,0,.347-.049.707-.079,1.067-.055.92-.134,1.828-.213,2.755a115.662,115.662,0,0,1,13.03,12.293q2.663,2.907,5.156,6.034a128.361,128.361,0,0,1,13.286,20.338A142.724,142.724,0,0,1,728.91,371.345Z" transform="translate(-11.07 -87.76)"/><path class="a" d="M708.755,779c0,4.163-14.341,8.063-39.365,11.415H196.063a119.258,119.258,0,0,1-59.982-16.035l-.28-.158c7.192-2.621,20.173-5.065,37.841-7.271h0l.792-.1c7.923-.969,16.778-1.889,26.456-2.761a6.031,6.031,0,0,0,.737-.067h0q11.519-1.024,24.506-1.92c.274,0,.542-.049.817-.061q5.01-.36,10.227-.683h0l1.341-.085c25.323-1.572,54.107-2.828,85.324-3.657h.037q6.558-.183,13.256-.323,7.448-.177,15.078-.311c3.882-.085,7.813-.146,11.756-.207h.091c17.79-.268,36.171-.4,54.967-.4,46.477,0,90.406.847,129.332,2.371h.11c5.985.232,11.86.488,17.589.75l4.876.232q9.7.463,18.893.993h0C661.924,764.827,708.755,771.488,708.755,779Z" transform="translate(-59.783 -348.886)"/><g class="b" transform="translate(378.697 240.727)"><path class="c" d="M683.024,746.2a11.57,11.57,0,0,1-.225,1.956q-6.363-1.012-12.8-1.828V745.8a10.286,10.286,0,0,1,1.524-5.168,5.67,5.67,0,0,1,10.318.317A10.282,10.282,0,0,1,683.024,746.2Z" transform="translate(-647.109 -582.226)"/><ellipse class="c" cx="8.538" cy="6.521" rx="8.538" ry="6.521" transform="translate(22.961 161.68) rotate(-88.19)"/><ellipse class="c" cx="8.538" cy="6.521" rx="8.538" ry="6.521" transform="translate(23.294 151.246) rotate(-88.19)"/><ellipse class="c" cx="8.538" cy="6.521" rx="8.538" ry="6.521" transform="translate(23.62 140.811) rotate(-88.19)"/><ellipse class="c" cx="8.538" cy="6.521" rx="8.538" ry="6.521" transform="translate(23.946 130.377) rotate(-88.19)"/><path class="d" d="M640.991,532.6a30.263,30.263,0,0,1-2.316-3.657l17.223-2.273-18.54-.445a31.314,31.314,0,0,1,.189-24.768L662,515.141l-22.4-17.577a31.253,31.253,0,1,1,50.487,36.567,30.961,30.961,0,0,1,3.382,5.808l-22.6,10.848,23.97-7.21a31.289,31.289,0,0,1-5.985,29.2,31.253,31.253,0,1,1-49.1-1.548,31.253,31.253,0,0,1,1.219-38.627Z" transform="translate(-632.44 -482.747)"/><path class="e" d="M696.165,598.805a31.082,31.082,0,0,1-7.313,19.1,31.253,31.253,0,1,1-49.1-1.548C635.75,610.915,696.274,595.3,696.165,598.805Z" transform="translate(-632.44 -527.875)"/></g><g class="b" transform="translate(286.06 240.727)"><path class="c" d="M531.024,746.2a11.582,11.582,0,0,1-.225,1.956q-6.363-1.012-12.8-1.828V745.8a10.287,10.287,0,0,1,1.524-5.168,5.67,5.67,0,0,1,10.318.317A10.282,10.282,0,0,1,531.024,746.2Z" transform="translate(-495.109 -582.226)"/><ellipse class="c" cx="8.538" cy="6.521" rx="8.538" ry="6.521" transform="translate(22.954 161.682) rotate(-88.19)"/><ellipse class="c" cx="8.538" cy="6.521" rx="8.538" ry="6.521" transform="translate(23.286 151.248) rotate(-88.19)"/><ellipse class="c" cx="8.538" cy="6.521" rx="8.538" ry="6.521" transform="translate(23.613 140.814) rotate(-88.19)"/><ellipse class="c" cx="8.538" cy="6.521" rx="8.538" ry="6.521" transform="translate(23.939 130.38) rotate(-88.19)"/><path class="d" d="M488.991,532.6a30.263,30.263,0,0,1-2.316-3.657l17.223-2.273-18.54-.445a31.314,31.314,0,0,1,.189-24.768L510,515.141l-22.4-17.577a31.253,31.253,0,1,1,50.487,36.567,30.958,30.958,0,0,1,3.382,5.808l-22.6,10.848,23.97-7.21a31.289,31.289,0,0,1-5.985,29.2,31.253,31.253,0,1,1-49.1-1.548,31.253,31.253,0,0,1,1.219-38.627Z" transform="translate(-480.44 -482.747)"/><path class="e" d="M544.165,598.805a31.082,31.082,0,0,1-7.313,19.1,31.253,31.253,0,1,1-49.1-1.548C483.75,610.915,544.274,595.3,544.165,598.805Z" transform="translate(-480.44 -527.875)"/></g><g class="b" transform="translate(505.918 95.81)"><path class="c" d="M938.472,751.932a22.732,22.732,0,0,1-.445,3.705q-12.25-1.956-24.677-3.5v-1.006a19.807,19.807,0,0,1,2.938-9.952c2.438-3.821,6.095-6.216,10.135-6.094s7.557,2.749,9.751,6.7a19.825,19.825,0,0,1,2.3,10.141Z" transform="translate(-869.369 -436.378)"/><ellipse class="c" cx="16.443" cy="12.561" rx="16.443" ry="12.561" transform="translate(44.139 311.133) rotate(-88.19)"/><ellipse class="c" cx="16.443" cy="12.561" rx="16.443" ry="12.561" transform="translate(44.773 291.045) rotate(-88.19)"/><ellipse class="c" cx="16.443" cy="12.561" rx="16.443" ry="12.561" transform="translate(45.412 270.957) rotate(-88.19)"/><ellipse class="c" cx="16.443" cy="12.561" rx="16.443" ry="12.561" transform="translate(45.342 250.001) rotate(-88.282)"/><path class="d" d="M857.6,340.835a60.5,60.5,0,0,1-4.455-7.027l33.154-4.376-35.684-.859a60.275,60.275,0,0,1,.354-47.684l47.08,26.335-43.113-33.837a60.165,60.165,0,1,1,97.19,70.429A60.164,60.164,0,0,1,958.643,355l-43.521,20.9L961.263,362a60.184,60.184,0,0,1-11.476,56.161,60.165,60.165,0,1,1-94.526-2.98,60.184,60.184,0,0,1,2.34-74.354Z" transform="translate(-841.186 -244.965)"/><path class="e" d="M963.845,468.2a59.933,59.933,0,0,1-14.017,36.775A60.165,60.165,0,1,1,855.3,502C847.536,491.51,964.058,461.458,963.845,468.2Z" transform="translate(-841.202 -331.769)"/></g><path class="f" d="M157.82,425.469l6.393-.018h9.014l11.4-185.14L297.489,51.971,292.583,46.7V33.37L170.521,235.947Z" transform="translate(-61.624 -13.032)"/><path class="e" d="M169.43,434h8.331l11.4-185.14L302.023,60.516l-4.906-5.266L180.7,246.034Z" transform="translate(-66.158 -21.577)"/><path class="f" d="M126.91,670.965l292.447,22.379.25.018,283.025-17.406.213-.012V663.993L390.987,658.27,130.8,658.02h-1.9l-.207,1.341Z" transform="translate(-49.552 -256.986)"/><path class="e" d="M126.91,670.965l292.447,22.379.25.018,283.025-17.406.213-.232V664.243h-.25L419.357,673.7,130.8,658.02h-.043l-.512.335-1.554,1.006Z" transform="translate(-49.552 -256.986)"/><path class="e" d="M126.91,671.18l292.447,22.379V673.916L130.25,658.57l-1.554,1.006Z" transform="translate(-49.552 -257.201)"/><path class="f" d="M378.88,46.545,507.81,184.928l-3.986,243.416,10.952,1.323.183.024h10.952l1.31-234.311,241.423,80.643,4.071,143.587,8.813.987,2.986.335L777.6,266.064l-252.375-88.6L386.846,33.6H378.88Z" transform="translate(-147.958 -13.122)"/><path class="e" d="M620.65,291.7l.993,4.479,241.423,80.643,4.071,143.587,8.813.987-6.911-147.561Z" transform="translate(-242.38 -113.922)"/><path class="e" d="M378.88,46.545,507.81,184.928l-3.986,243.416,10.952,1.323,2.986-252.7L378.88,33.6Z" transform="translate(-147.958 -13.122)"/><path class="f" d="M621.42,441.859,709.968,459.3l.031.006,155.088,30.552,7.1-2.846-.024-.5-.463-9.9L621.511,426.05Z" transform="translate(-242.68 -166.392)"/><path class="e" d="M766.76,480.61l155.088,30.552,7.1-2.846-.024-.5Z" transform="translate(-299.442 -187.7)"/><path class="f" d="M776.49,350.56l2.4,131.849,1.237,67.643,10.9-.366,6.862-.232-2.133-196.988-4.729-1.572-1.036-.335Z" transform="translate(-303.242 -136.909)"/><path class="e" d="M776.65,350.51v.03l2.3,131.849,1.237,67.643,10.9-.366V350.51Z" transform="translate(-303.305 -136.89)"/><path class="c" d="M495.833,488.191a13.893,13.893,0,0,1,1.828,1.188,12.1,12.1,0,0,1,1.828,2.005c2.615,3.382,5.028,7.313,4.772,11.58a4.711,4.711,0,0,1-1.359,3.352c-1.079.92-2.627.963-4.041.963a8.6,8.6,0,0,1-4.479-.792c-1.329-.792-2.438-2.334-4.01-2.3a2.056,2.056,0,0,1-.67,0c-.542-.177-.652-.89-1.006-1.341-.609-.811-1.9-.609-2.852-.256s-2.017.884-2.962.475a3.077,3.077,0,0,1-1.286-1.286c-2.261-3.657-2.743-8.051-3.169-12.3-.262-2.584-2.261-11.4,3.254-9.392,2.438.878,4.717,2.633,6.936,3.919Z" transform="translate(-193.373 -240.868)"/><path class="c" d="M497.691,492.873a2.718,2.718,0,0,0,3.346-.134,5.04,5.04,0,0,0,1.627-3.157c.609-.189.92.609,1.31,1.1.683.829,2.072.817,2.694,1.7.433.609.335,1.457.64,2.145.4.89,1.377,1.353,2.048,2.072a7.058,7.058,0,0,1,1.341,2.675l1,3a14.82,14.82,0,0,1,.914,3.882,5.028,5.028,0,0,1-1.158,3.712c-1.341,1.444-3.541,1.6-5.485,1.554a7.057,7.057,0,0,1-1.926-.225,5.466,5.466,0,0,1-3.285-4.022,50.78,50.78,0,0,1-.676-5.375,21.069,21.069,0,0,0-1.524-5.107c-.536-1.268-2.011-3.157-1.987-4.5C497.009,492.184,497.326,492.586,497.691,492.873Z" transform="translate(-200.68 -244.678)"/><path class="g" d="M496.673,479.836a10.062,10.062,0,0,1-.494-2.676,11.647,11.647,0,0,1,1.676-5.18l-6.966.945a3.085,3.085,0,0,0-2.255.987,2.438,2.438,0,0,0,0,2.249,11.494,11.494,0,0,1,.829,2.176,10.862,10.862,0,0,0,.225,1.956,4.142,4.142,0,0,0,.9,1.262,42.255,42.255,0,0,1,4.973,7.387c-.043-.073,4.2-3.358,4.029-4.431-.1-.609-1.323-1.341-1.713-1.926A9.807,9.807,0,0,1,496.673,479.836Z" transform="translate(-197.473 -237.815)"/><path class="f" d="M507.829,358.04v6l-102.8,20.051-5.333,3.23H381.3v-3.382l101-24.4Z" transform="translate(-148.903 -139.831)"/><path class="e" d="M507.829,367.89l-102.8,20.051-5.333,3.23H381.3L483.048,369.4Z" transform="translate(-148.903 -143.677)"/><path class="d" d="M453.609,723.565a7.966,7.966,0,0,0-9.69-2.06,2.552,2.552,0,0,0-.89.695c-.609.853-.219,2.029-.165,3.084.14,2.572-1.908,4.662-3.748,6.46a8.861,8.861,0,0,0-2.438,3.3,3.1,3.1,0,0,0,1.079,3.657,4.491,4.491,0,0,0,1.67.463,18.021,18.021,0,0,0,5.912.165,6.4,6.4,0,0,0,4.693-3.267,3.444,3.444,0,0,1,.786-1.3c1.073-.847,2.718.146,3.937-.457,1.006-.5,1.048-1.286,1.06-2.322C455.852,729.124,455.425,725.881,453.609,723.565Z" transform="translate(-177.215 -334.94)"/><path class="d" d="M480.125,720.574a20.065,20.065,0,0,1,.951,6.235,6.016,6.016,0,0,1-.567,3.553,4.855,4.855,0,0,1-3.175,1.828c-2.541.524-5.485.03-7.125-1.987a7.517,7.517,0,0,1-1.286-5.656c.2-1.639.609-3.559-.567-4.723-.3-.311-.7-.53-.981-.865a2.9,2.9,0,0,1-.183-2.779,12.075,12.075,0,0,0,.957-2.749c.049-.451,8.252.317,9.008.689,1.03.506.872,1.353,1.182,2.377C478.772,717.923,479.6,719.209,480.125,720.574Z" transform="translate(-189.104 -332.059)"/><path class="c" d="M465.7,580.373c1.609,1.042,2.231,3.09,2.481,4.991.689,5.211-.518,10.477-.609,15.736-.085,7.368,2.048,14.871.226,22.007-1.091,4.266-.165,9.142-1.188,13.451-.3,1.28-.865,2.487-1.158,3.766-.609,2.773.031,5.674.89,8.386a8.66,8.66,0,0,1,.518,2.273,8.178,8.178,0,0,1-.89,3.437l-3.657,8.648c-.408.969-2.017,1.128-3.047,1.255-1.938.232-4.1.4-5.644-.8s-1.914-3.212-2.151-5.089a78.008,78.008,0,0,1-.609-10.867,8.953,8.953,0,0,0-.25-2.822,24.724,24.724,0,0,1-1.274-3.047c-.256-1.426.469-2.828.737-4.266a12.851,12.851,0,0,0-.061-3.955c-.238-1.95-.512-3.9-.823-5.839-.439-2.712.189-5.388.609-8.106a22.35,22.35,0,0,0-.609-7.691,21.2,21.2,0,0,1-.762,6.095c-.323.969-.786,1.9-1.067,2.883-1.249,4.431,1.414,9.081,1.036,13.67-.177,2.145-1.018,4.266-.78,6.381A21.529,21.529,0,0,0,449,645.31a5.759,5.759,0,0,1,0,4.54c-1.981,3.742-.5,8.831,1.274,12.671a17.1,17.1,0,0,1,.939,2.109c.524,1.731.085,3.59.225,5.394a3.4,3.4,0,0,1-2.858-.859c-.268-.28-.488-.609-.75-.9a7.441,7.441,0,0,0-2.547-1.591,3.346,3.346,0,0,0-1.828-.42,3.656,3.656,0,0,0-1.737,1.079,17.02,17.02,0,0,1-1.914,1.457,2.266,2.266,0,0,1-.975.433.859.859,0,0,1-.9-.457,1.084,1.084,0,0,1-.067-.317,48.245,48.245,0,0,1-.36-5.546c0-3.187-3.815-5.382-4.3-8.532-.384-2.541.329-5.132.091-7.691a37.384,37.384,0,0,1-.457-3.925c0-.853.2-1.688.262-2.535a18.96,18.96,0,0,0-.043-2.822l-.189-2.944a25.437,25.437,0,0,0-1.53-8.532,28.992,28.992,0,0,1-2.377-9.8c-.122-2.133-.043-4.266-.286-6.405a31.534,31.534,0,0,1-.567-5.79c.116-1.5.609-2.95.725-4.449.238-2.883-.859-5.686-1.719-8.447s-1.493-5.82-.366-8.484a2.785,2.785,0,0,1,.78-1.134,3.4,3.4,0,0,1,1.438-.536,111.6,111.6,0,0,1,31.826-2.03,10.569,10.569,0,0,1,4.906,1.53Z" transform="translate(-173.175 -279.412)"/><circle class="g" cx="9.763" cy="9.763" r="9.763" transform="translate(248.164 216.704)"/><path class="g" d="M428.766,473.228a3.487,3.487,0,0,1,0,1.7,3.852,3.852,0,0,1-.64,1.073A27.546,27.546,0,0,1,425,479.4a5.662,5.662,0,0,0,2.919,2.883,16.95,16.95,0,0,0,4.029,1.152,4.223,4.223,0,0,0,3.949-.683l5.424-3.248a10.836,10.836,0,0,0,2.255-1.627,5.552,5.552,0,0,0,1.572-3.815,1.048,1.048,0,0,0-.2-.719,1.28,1.28,0,0,0-.744-.311,6.61,6.61,0,0,1-4.266-3.724,19.722,19.722,0,0,1-1.481-5.65l-5.784,3.047c-.859.457-1.713.914-2.6,1.31-.567.256-1.713.469-2.115.987C427.194,469.962,428.565,472.077,428.766,473.228Z" transform="translate(-172.728 -234.566)"/><path class="c" d="M423.76,482.594a6.43,6.43,0,0,0-1.871,2.529,6.591,6.591,0,0,0,.341,3.712,110.738,110.738,0,0,1,3.657,15.718c.512,3.657.7,7.368.951,11.068.512,7.545,1.255,19.576,2.249,27.072,3.657.165,7.222-.9,10.848-1.292,6.777-.719,13.755.926,20.392-.609-1.609-6.357-3.218-17.211-4.827-23.562a44.958,44.958,0,0,1-1.475-7.649c-.14-1.859-.055-3.724-.03-5.595.055-3.657-.146-7.313-.347-10.97a69.6,69.6,0,0,0-1.475-12.707,2.365,2.365,0,0,0-.707-1.4,2.863,2.863,0,0,0-2.127-.189,9.252,9.252,0,0,1-6.326-1.5c-.8-.549-1.883-1.219-2.633-.609a2.62,2.62,0,0,0-.609,1.3,6.491,6.491,0,0,1-3.815,3.76,19.094,19.094,0,0,1-5.4,1.109,2.651,2.651,0,0,1-1.676-.189c-.865-.53-.926-2.438-2.017-2.566C425.905,479.918,424.406,481.978,423.76,482.594Z" transform="translate(-171.452 -239.531)"/><path class="d" d="M431.249,497.736c-2.249-2.151-3.236-5.272-4.876-7.923a17.638,17.638,0,0,0-4.211-4.632,12.561,12.561,0,0,1-2.292-1.944c-.579-.713-1.018-1.664-1.9-1.938a2.292,2.292,0,0,0-2.054.567,20.221,20.221,0,0,0-1.524,1.621c-2.584,2.676-7.125,3.047-9.172,6.143a5.034,5.034,0,0,0-1.091,2.285,17.711,17.711,0,0,0,3.255,12.738,4.327,4.327,0,0,0,2.255,1.828,7.057,7.057,0,0,0,.439,3.352,89.631,89.631,0,0,0,4.15,11.305,27.346,27.346,0,0,0-.817,4.382c-.427,3.724-.03,7.5-.433,11.232-.329,3.047-1.219,6.015-1.249,9.069,0,.488.043,1.067.463,1.316a1.4,1.4,0,0,0,.725.152l7.5.225a60.845,60.845,0,0,0,13.03-.549,5.425,5.425,0,0,0,1.639-.518c1.451-.811,1.932-2.639,2.164-4.266a37.182,37.182,0,0,0,.36-6.375c.908,2.871,1.987,5.839,4.729,7.082a10.61,10.61,0,0,0,4.7.567,88.491,88.491,0,0,0,10.233-1.054,1.347,1.347,0,0,0,1.493-1.566l.037-3.328c.073-6.759-1.6-13.219-2.255-19.947a43.37,43.37,0,0,0-.707-6.344c-.213-.872-.524-1.725-.713-2.6a18.606,18.606,0,0,1-.3-2.6l-.475-6.7c-.225-3.1-.548-6.095-.786-9.191a44.488,44.488,0,0,0-1.3-8.935c-.53-1.828-1.633-3.9-3.541-4.126a7.3,7.3,0,0,0-2.974.64,12.018,12.018,0,0,1-7.313-.03,10.3,10.3,0,0,0-2.279-.609,2.237,2.237,0,0,0-2.084.865,3.127,3.127,0,0,0-.323,1.536A81.291,81.291,0,0,1,431.249,497.736Z" transform="translate(-164.521 -239.79)"/><path class="c" d="M421.791,505.559c-2.81-2.962-5.692-5.979-9.312-7.862a7.438,7.438,0,0,0-4.626-1.024,3.463,3.463,0,0,0-2.974,3.254,21.063,21.063,0,0,0,.841,2.846c.219,1.1-.1,2.267.244,3.328a5.632,5.632,0,0,0,1.219,1.871l4.315,5.113a27.774,27.774,0,0,0,6.009,5.772,9.032,9.032,0,0,0,7.984,1.115,9.812,9.812,0,0,0,4.376-4.016c1.073-1.706,1.828-3.571,2.834-5.333a26.481,26.481,0,0,1,6.095-7.393c-1.268-.329-2.858-.792-3.657-1.828a6.045,6.045,0,0,1-.579-1.048l-.987-2.133a2.438,2.438,0,0,0-1.828.689,15.327,15.327,0,0,1-1.359,1.383c-.859.646-2.023.823-2.8,1.56a7.423,7.423,0,0,0-.817,1.024,6.838,6.838,0,0,1-4.973,2.682Z" transform="translate(-164.869 -247.43)"/><path class="g" d="M456.743,479.288c2.115-3.858,2.017-8.484,2.621-12.841a5.863,5.863,0,0,1,1.164-3.187c1.219-1.377,3.37-1.4,5.211-1.219.542.061,1.219.317,1.188.859a1.1,1.1,0,0,1-.274.518,14.5,14.5,0,0,0-3.011,8c.957.664,2.438-.7,3.358,0,.609.512.329,1.524-.037,2.255q-1.274,2.541-2.627,5.046a16.2,16.2,0,0,1-2.785,4.016c-.774.743-1.682,1.329-2.468,2.06-1.828,1.713-2.931,4.132-4.821,5.8a.987.987,0,0,1-.609.311,1.024,1.024,0,0,1-.64-.286,9.239,9.239,0,0,1-2.3-2.785c-.719-1.329-.609-1.719.524-2.657A20.144,20.144,0,0,0,456.743,479.288Z" transform="translate(-182.592 -233.903)"/><path class="d" d="M419.506,501.777c.366.226.817.482,1.219.293a1.267,1.267,0,0,0,.408-.4,14.344,14.344,0,0,0,1.731-3.011,1.158,1.158,0,0,0,.128-.488c0-.39-.347-.676-.67-.9a24.842,24.842,0,0,0-5.54-2.633,11.432,11.432,0,0,0-5-.987,4.766,4.766,0,0,0-3.334,1.694c-1.219,1.566.823,2.042,2.1,2.608C413.515,499.3,416.721,500.083,419.506,501.777Z" transform="translate(-166.119 -246.269)"/><path class="e" d="M423.674,520.457a.9.9,0,0,0,.256.768c.177-.865-.055-1.78.128-2.651.268-1.31,1.542-2.3,1.652-3.614C423.375,514.5,423.692,519.043,423.674,520.457Z" transform="translate(-172.207 -254.588)"/><path class="h" d="M572.55,358.04v6l-24.78,1.505-.75-6.009Z" transform="translate(-213.624 -139.831)"/><path class="c" d="M417.952,452.49c1.548-1.262.652-3.907,1.7-5.6a5.442,5.442,0,0,1,2.651-1.828,12.061,12.061,0,0,1,3.87-1.073,4.492,4.492,0,0,1,3.657,1.347c.4.451.664,1,1.036,1.469a3.962,3.962,0,0,0,3.84,1.329c.811-.183,1.652-.8,1.6-1.627a2.3,2.3,0,0,0-.731-1.3l-1.743-1.932c-1.981-2.194-4.181-4.522-7.088-5.071a12.159,12.159,0,0,0-6.046.811c-.786.262-1.67.652-1.889,1.451-.146.549.073,1.146-.055,1.7-.25,1.1-1.664,1.475-2.322,2.4s-.457,2.023-.646,3.047a26.64,26.64,0,0,0-.8,3.084c-.043.64.28,1.828,1,2.06S417.507,451.728,417.952,452.49Z" transform="translate(-168.813 -224.572)"/><path class="i" d="M435.379,442.421a18.284,18.284,0,0,0-3.242-7.411,12.987,12.987,0,0,0-5.772-4.583,8.264,8.264,0,0,0-7.185.567,10.434,10.434,0,0,0-3.59,4.528c-1.578,3.4-2.164,7.557-.329,10.824.731-.89,1.987-.488,3.1-.811a32.275,32.275,0,0,0,3.888-1.9C426.237,441.872,431.113,443.3,435.379,442.421Z" transform="translate(-168.48 -221.365)"/><path class="e" d="M417.411,448.047c-.14-1.1-.232-2.371.548-3.151a.4.4,0,0,1,.323-.146.421.421,0,0,1,.25.219,13.642,13.642,0,0,1,1.146,2.243,2.328,2.328,0,0,0-2.438.945" transform="translate(-169.698 -227.18)"/><path class="e" d="M440.706,443.139l-.219-2.176a.993.993,0,0,1,.043-.536.689.689,0,0,1,.89-.244,1.828,1.828,0,0,1,.713.713,12.8,12.8,0,0,1,1.255,2.481,7.374,7.374,0,0,0-2.968.037" transform="translate(-178.751 -225.368)"/><path class="e" d="M421.906,502.21v4.973l-4.2.28H395.62V502.21Z" transform="translate(-154.495 -196.136)"/><path class="f" d="M377.157,446.874v5.253H350.871L281.04,364.652V360.52h14.639Z" transform="translate(-109.747 -140.799)"/><path class="e" d="M377.157,446.874v5.253H350.871L281.04,364.652V360.52h14.639Z" transform="translate(-109.747 -140.799)"/><path class="e" d="M377.157,446.874v5.253H350.871L281.04,364.652V360.52l70.209,86.354Z" transform="translate(-109.747 -140.799)"/><path class="d" d="M302.484,731.187a1.828,1.828,0,0,1-1.6,2.151c-1.694.573-3.492,1.14-4.693,2.438s-1.438,3.705,0,4.76a4.626,4.626,0,0,0,2.438.664,16.518,16.518,0,0,0,8.142-1.018c1.792-.829,3.48-2.243,5.449-2.115,1.018.061,2.1.536,3.011.073s1.164-1.755,1.17-2.834a20.983,20.983,0,0,0-1.006-6.637c-.091-.293-3.968-.518-4.431-.609l-4.7-.609c-.89-.116-2.81-.786-3.51-.043S302.484,730.3,302.484,731.187Z" transform="translate(-122.037 -337.437)"/><path class="d" d="M353.056,703.07a14.722,14.722,0,0,0,.963,3.194c.652,1.658,1.487,3.419,3.084,4.224a5.5,5.5,0,0,0,4.7-.225,3.877,3.877,0,0,0,1.566-1.188,4.717,4.717,0,0,0,.609-2.736,14.95,14.95,0,0,0-1.219-6.893c-.926-1.828-2.541-3.4-2.566-5.424l-5.552,1.073a1.585,1.585,0,0,0-.817.323,1.407,1.407,0,0,0-.353.664A18.143,18.143,0,0,0,353.056,703.07Z" transform="translate(-144.567 -324.532)"/><path class="d" d="M244.3,607.42a9.072,9.072,0,0,0,.89,5.759,4.457,4.457,0,0,0,5.046,2.139.737.737,0,0,0,.457-.347.859.859,0,0,0-.079-.609,9,9,0,0,1,.189-6.777c.122-.28.384-.609.67-.5a.61.61,0,0,1,.274.28,3.187,3.187,0,0,1,.427,1.682,6.254,6.254,0,0,0-.049,1.615c.116.524.676,1.018,1.164.792a1.219,1.219,0,0,0,.555-.786c1.359-3.931.744-8.228.122-12.341a.646.646,0,0,0-.725-.676c-2.877-.286-4.449-.975-6.095,1.7C245.736,601.606,244.3,604.708,244.3,607.42Z" transform="translate(-102.118 -286.78)"/><path class="c" d="M298.417,596.339a37.374,37.374,0,0,0-1.255,17.565l.64,5.278c.219,1.78.433,3.553.744,5.314a14.111,14.111,0,0,1,.323,2.761,14.787,14.787,0,0,1-.433,2.712,31.691,31.691,0,0,0-.64,5.668c-.067,3.047.311,6.095.548,9.142a101.806,101.806,0,0,1-.213,18.235,6.838,6.838,0,0,0,1,4.7,6.045,6.045,0,0,1,.884,1.45c.457,1.4-.609,2.791-.884,4.224a4.266,4.266,0,0,0,3.547,4.876c4.876.579,9.885.317,14.28,2.547.463-1.353-.549-2.889-.085-4.266.293-.853,1.1-1.408,1.646-2.127a6.193,6.193,0,0,0,1.048-3.718,13.585,13.585,0,0,0-.9-5.04c-.518-1.341-1.262-2.663-1.219-4.1a5.183,5.183,0,0,0-.037-2.1,3.286,3.286,0,0,0-.786-.981,12.39,12.39,0,0,1-3.187-7.222,33.265,33.265,0,0,1,.256-8.008c.3-2.523.7-5.186,2.3-7.155a45.91,45.91,0,0,1,1.286-17.827c.158-.536.408-1.158.957-1.286a1.365,1.365,0,0,1,1.17.463,7.989,7.989,0,0,1,1.828,3.437,7.5,7.5,0,0,1,.573,4.163c-.146.609-.439,1.146-.609,1.731a5.132,5.132,0,0,0,.183,3.578,3.438,3.438,0,0,1,.439,1.347,3.73,3.73,0,0,1-.366,1.17,5.387,5.387,0,0,0,.506,4.358,15.777,15.777,0,0,0,2.846,3.492,12.8,12.8,0,0,0,.4,7.045.89.89,0,0,1,.079.677c-.11.232-.39.317-.609.481-.609.5-.232,1.444.177,2.1a48.069,48.069,0,0,0,3.7,5.132c1.219,1.457,1.109,4.266,2.925,4.79a5.486,5.486,0,0,0,2.316,0c1.792-.274,3.791-.792,4.668-2.377a6.4,6.4,0,0,1,1.067-1.932c.561-.488,1.286-.573,1.6-1.158s-.037-1.353.067-2.029.695-1.219.884-1.932c.451-1.646-1.469-3-1.731-4.681-.378-2.438,2.694-4.266,2.566-6.7-.268-5.3-.439-10.617-.713-15.913a114.742,114.742,0,0,1-.146-14.255c.213-2.956.609-6.052-.475-8.8-1.56-3.876-5.863-6.052-10.026-6.466s-8.313.573-12.439,1.219A78.621,78.621,0,0,1,298.417,596.339Z" transform="translate(-122.602 -285.699)"/><circle class="j" cx="9.763" cy="9.763" r="9.763" transform="translate(178.424 232.861)"/><path class="j" d="M310.727,500.933a4.163,4.163,0,0,1-3.98,2.517c-.353,1.463.494,2.938,1.463,4.089a17.357,17.357,0,0,0,16.614,5.7,8.2,8.2,0,0,0,3.273-1.365,7.258,7.258,0,0,0,2.5-4.327,21.514,21.514,0,0,0,.238-5.089,1.317,1.317,0,0,0-.268-.939,1.341,1.341,0,0,0-.853-.28c-2.06-.183-4.211-.262-6.021-1.274s-3.1-3.3-2.225-5.174c-.14.293-3.7.433-4.169.494-1.469.207-2.938.439-4.4.707a8,8,0,0,0-2.066.39c-.884.457-.555.232-.347,1.06C310.794,498.709,311.251,499.617,310.727,500.933Z" transform="translate(-126.513 -246.723)"/><path class="c" d="M295.4,510.056a16.171,16.171,0,0,1-3.907-.433,5.485,5.485,0,0,1-3.206-2.139c-.451-.683-.744-1.542-1.463-1.926-1.176-.609-2.517.421-3.456,1.365a12.556,12.556,0,0,1-2.938,2.365c-1.3.689-2.828.932-4.059,1.743a10.2,10.2,0,0,0-2.438,2.633L265.3,525.427c-3.468,4.729-6.485,9.806-9.575,14.8-2.676,4.321-4.077,9.294-6.095,13.957a1.56,1.56,0,0,0-.189.939c.073.317.457.573.725.39-.908.9-.11,2.438-.323,3.706a4.546,4.546,0,0,1-1.451,2.273,11.458,11.458,0,0,1,4.022.189,12.327,12.327,0,0,1,3.8,1.828c.737-.116.67-1.426,1.219-1.914.329-.286.817-.25,1.249-.335,1.627-.317,2.273-2.273,3.523-3.376,1.042-.92,2.517-1.219,3.62-2.084,1.792-1.408,2.176-3.913,3.114-5.991.8-1.761,2.054-3.3,2.755-5.1a21.975,21.975,0,0,1,1.329-3.517c1.042-1.743,3-2.669,4.876-3.5a8.074,8.074,0,0,1,3.712-.993c-.067,2.834-.427,5.625.189,8.392.213.975.512,1.926.768,2.895a54.512,54.512,0,0,1,1.493,13.408,40.792,40.792,0,0,1,8.532-1.024c2.261-.067,4.516.225,6.777.183,2.682-.049,5.333-.567,8.014-.75a14.971,14.971,0,0,1,7.856,1.219,74.627,74.627,0,0,1,.323-11.58l.646-6.058a37.218,37.218,0,0,1,.811-5.229c.353-1.39.865-2.73,1.255-4.114,1.371-4.876,1.121-10.08.859-15.157a19.1,19.1,0,0,0-2.322-7.5,20.294,20.294,0,0,0-1.463-2.487,14.4,14.4,0,0,0-12.591-5.912,2.548,2.548,0,0,0-.9.2,3,3,0,0,0-1.152,1.371,14.932,14.932,0,0,1-5.308,5.509Z" transform="translate(-103.754 -249.91)"/><path class="c" d="M303.845,481.547c.274-.609,1.012-.835,1.463-1.323.865-.926.475-2.407.609-3.657a5.253,5.253,0,0,1,3.474-4.01,11.226,11.226,0,0,1,5.485-.347,5.309,5.309,0,0,1,2.474.823c.317.232.609.53.908.744a2.438,2.438,0,0,0,3.315-.774c-2.157-2.6-4.547-5.339-7.825-6.137a16.052,16.052,0,0,0-3.419-.323,11.1,11.1,0,0,0-4.486.524,7.477,7.477,0,0,0-3.937,4.547,22.1,22.1,0,0,0-.957,6.095,22.961,22.961,0,0,0,0,4.144,11.458,11.458,0,0,0,2.036,5.223,1.578,1.578,0,0,0,.609.567C306.374,488.86,303.619,482.052,303.845,481.547Z" transform="translate(-124.245 -235.686)"/><path class="i" d="M319.956,467.484c-.335-2.871-2.383-5.241-4.559-7.149a16.809,16.809,0,0,0-6.125-3.687,8.184,8.184,0,0,0-6.911.841A10.618,10.618,0,0,0,299,462.115a14.56,14.56,0,0,0-1.469,6.7,7.228,7.228,0,0,0,3.273,5.8,6.155,6.155,0,0,1,3.169-2.042,155.156,155.156,0,0,1,15.986-5.1Z" transform="translate(-122.943 -231.674)"/><path class="e" d="M303.575,472.72c.2,0,.323.2.421.366a15.447,15.447,0,0,1,1.274,2.438c-.713.152-1.938.323-2.292-.3C302.789,474.9,303.015,472.689,303.575,472.72Z" transform="translate(-125.048 -238.104)"/><path class="e" d="M326.587,468.531c-.146.14-.317-.146-.317-.353v-2.365a.348.348,0,0,1,.043-.189.286.286,0,0,1,.2-.1c.494-.055.9.366,1.219.768a12.872,12.872,0,0,1,1.249,2.078l-2.578-.079" transform="translate(-134.169 -235.293)"/><path class="c" d="M367.069,524.671a15.944,15.944,0,0,1,1.792-1.469c1.688-1.127,3.73-1.572,5.625-2.292s3.821-1.883,4.559-3.773a8.96,8.96,0,0,0,.353-3.657,3.656,3.656,0,0,0-.268-1.505,2.992,2.992,0,0,0-.963-1.048c-2.572-1.9-6.021-2.054-9.215-1.859a57.759,57.759,0,0,0-20.362,5.083,1.767,1.767,0,0,0-.853.609,1.743,1.743,0,0,0-.165.847,14.017,14.017,0,0,0,.689,5.308c.841,2.17,2.572,3.919,3.3,6.131.329.993.439,2.048.725,3.047A4.266,4.266,0,0,0,354,532.643c2.407,1.438,4.681-.494,6.35-1.993Z" transform="translate(-142.478 -252.275)"/><path class="d" d="M313.855,529.916l-3.09-6.741a23.584,23.584,0,0,1-1.17-2.883c-.354-1.176-.524-2.4-.853-3.578-1.085-3.937-3.821-7.216-5.156-11.074a2.1,2.1,0,0,0-.5-.932,1.627,1.627,0,0,0-1.359-.244c-1.865.323-3.322,1.743-5.028,2.547-.792.366-1.646.609-2.438,1.03a3.047,3.047,0,0,0-1.633,1.944,4.752,4.752,0,0,0,.664,2.736c1.658,3.742,2.036,7.923,2.109,12.018.055,2.755-.085,5.711-1.713,7.923-3.127,4.266-1.128,10.531.043,15.693.14.609.3,1.268.4,1.914a17.586,17.586,0,0,1,.14,2.438,19.078,19.078,0,0,1-1.3,8.039,9,9,0,0,0,3.657,1.036q5.308.676,10.659.951a11.618,11.618,0,0,0,3.346-.171,6.1,6.1,0,0,0,4.5-5.973c.2,1.688.555,3.523,1.78,4.693s3.011,1.347,4.675,1.438a86.912,86.912,0,0,0,14.078-.4,2.437,2.437,0,0,0,.865-.2c.9-.451.951-1.694.878-2.694-.134-1.871-.274-3.742-.5-5.6a22.923,22.923,0,0,1-.293-3.584,20.619,20.619,0,0,1,.609-3.657,41.47,41.47,0,0,0,1.188-11.58,19.536,19.536,0,0,1-.116-2.858c.158-2.151,1.292-4.2,1.079-6.338-.609-6.29-1.1-12.744-2.858-18.814a4.876,4.876,0,0,0-1.664-2.871c-1.219-.817-2.931-.39-4.327-.908a10.825,10.825,0,0,1-1.859-1.1,8.532,8.532,0,0,0-4.2-1.292,3.564,3.564,0,0,0-3.047,1.109,4.425,4.425,0,0,0-.609,1.664c-.884,3.718-1.92,7.393-2.956,11.068l-.993,3.523-2.663,9.459C313.946,528.655,314.123,528.966,313.855,529.916Z" transform="translate(-120.792 -249.079)"/><path class="f" d="M334.874,400.25,393.827,462.2v5.253H367.541l-44.3-57.819" transform="translate(-126.228 -156.315)"/><path class="e" d="M334.874,400.25,393.827,462.2v5.253H367.541l-44.3-57.819" transform="translate(-126.228 -156.315)"/><path class="e" d="M324.179,414.31l.189.067,43.552,53.315h25.908v5.253H367.541l-44.3-57.819Z" transform="translate(-126.228 -161.807)"/><path class="d" d="M343.627,502.578c-2.133.932-4.5,2.127-5.144,4.37a2.188,2.188,0,0,0,2.158,2.931,7.313,7.313,0,0,0,2.931-.536l12.585-4.156c.341-.11.731-.274.817-.609a1.048,1.048,0,0,0-.122-.609c-.39-.951-.774-2.895-1.591-3.559-.67-.536-2-.347-2.81-.335C349.331,500.1,346.4,501.359,343.627,502.578Z" transform="translate(-138.893 -248.77)"/><path class="c" d="M363.688,504.865a20.239,20.239,0,0,1,6.247.969,11.128,11.128,0,0,1,5.174,3.535,3.876,3.876,0,0,1,.817,1.6c.122.609,2.109.975,1.67,1.39,1.335-.213,1.018.414,2.371.4a4.48,4.48,0,0,0,3.626-1.438,4.711,4.711,0,0,0,.713-2.98,5.077,5.077,0,0,0-.4-2.109c-.609-1.28-2.011-1.969-3.3-2.56l-10.885-4.979a7.227,7.227,0,0,0-2.011-.713,7.517,7.517,0,0,0-1.774.043l-4.93.567a7.393,7.393,0,0,1,3.37,6.5" transform="translate(-147.734 -247.956)"/></svg>